<?xml version="1.0" standalone="no"?>
<!DOCTYPE svg PUBLIC "-//W3C//DTD SVG 20010904//EN"
 "http://www.w3.org/TR/2001/REC-SVG-20010904/DTD/svg10.dtd">
<svg version="1.0" xmlns="http://www.w3.org/2000/svg" class=""
 width="1000.000000pt" height="1000.000000pt" viewBox="0 0 1000.000000 1000.000000"
 preserveAspectRatio="xMidYMid meet">

 <!-- Define the linear gradient -->
<!-- <linearGradient id="gradient" gradientUnits="userSpaceOnUse" x1="0" y1="0" x2="1000" y2="1000">
  <stop offset="0%" stop-color="#006400" />
  <stop offset="100%" stop-color="#00FF00" />
</linearGradient> -->


<g transform="translate(0.000000,1000.000000) scale(0.100000,-0.100000)"
fill="fill-blue-500" stroke="none">
<path d="M4676 9403 c13 -107 10 -234 -6 -283 -4 -14 -16 -51 -26 -83 -34
-107 -60 -120 -334 -156 -50 -6 -99 -20 -155 -42 -11 -4 -32 -10 -48 -13 -15
-4 -53 -18 -85 -32 -109 -50 -207 -97 -212 -103 -3 -4 -25 -22 -50 -41 -25
-19 -51 -40 -58 -47 -7 -6 -52 -40 -100 -74 -48 -34 -98 -72 -112 -84 -36 -32
-220 -144 -320 -196 -40 -21 -130 -59 -139 -59 -5 0 -24 -8 -43 -17 -61 -31
-68 -33 -87 -33 -10 0 -32 -7 -47 -15 -16 -8 -37 -15 -47 -15 -9 0 -25 -4 -35
-9 -36 -18 -121 -41 -150 -41 -17 0 -34 -4 -37 -10 -3 -5 -19 -10 -35 -10 -16
0 -41 -5 -57 -12 -15 -6 -55 -15 -88 -19 -115 -15 -284 -56 -237 -58 6 -1 12
-12 12 -25 0 -13 7 -26 15 -30 8 -3 15 -12 15 -21 0 -9 11 -28 25 -43 14 -15
25 -31 25 -35 0 -5 11 -23 25 -41 14 -18 25 -38 25 -44 0 -7 17 -29 38 -50 20
-21 60 -63 89 -93 56 -59 79 -79 89 -79 4 0 17 -11 30 -25 13 -14 27 -25 31
-25 5 0 20 -11 34 -24 14 -13 43 -35 65 -48 22 -14 45 -33 53 -42 7 -9 20 -16
29 -16 8 0 25 -11 38 -25 13 -14 29 -25 35 -25 7 0 20 -6 28 -14 32 -28 133
-80 246 -126 17 -7 37 -16 45 -21 8 -5 22 -12 30 -15 72 -30 90 -39 90 -46 0
-4 11 -8 25 -8 14 0 25 -4 25 -10 0 -5 9 -10 19 -10 11 0 22 -4 26 -9 3 -6 27
-20 53 -33 26 -13 49 -26 50 -30 2 -5 8 -8 14 -8 6 0 26 -11 44 -25 18 -14 40
-25 49 -25 8 0 18 -7 21 -15 4 -8 12 -15 20 -15 8 0 14 -4 14 -10 0 -5 7 -10
15 -10 9 0 28 -11 43 -25 15 -14 32 -25 38 -25 15 0 148 -139 166 -175 41 -79
51 -249 22 -354 -27 -99 -46 -137 -104 -209 -25 -31 -54 -71 -65 -89 -10 -17
-28 -36 -41 -41 -12 -6 -53 -37 -90 -70 -38 -32 -98 -80 -134 -106 -36 -26
-86 -67 -111 -89 -64 -58 -77 -68 -145 -114 -65 -45 -261 -239 -303 -300 -14
-21 -55 -77 -91 -122 -120 -154 -135 -177 -202 -301 -14 -25 -36 -66 -51 -91
-46 -81 -77 -142 -77 -151 0 -4 -10 -25 -23 -46 -13 -20 -31 -55 -40 -77 -8
-22 -43 -101 -77 -175 -61 -134 -93 -230 -110 -332 -5 -29 -18 -102 -30 -163
-44 -227 -46 -693 -4 -900 9 -44 16 -102 15 -130 -2 -83 79 -406 137 -545 6
-14 25 -63 42 -110 28 -75 160 -353 193 -404 7 -11 27 -45 46 -75 19 -31 38
-60 43 -66 5 -5 30 -40 56 -76 170 -240 382 -471 557 -608 44 -35 89 -71 101
-80 130 -110 379 -254 649 -377 125 -56 349 -129 480 -155 22 -4 74 -15 115
-24 251 -52 528 -77 730 -64 124 7 380 42 399 53 5 4 29 10 53 15 336 67 673
178 820 268 21 13 41 23 44 23 10 0 249 150 312 197 162 119 211 159 335 281
217 212 402 444 530 663 40 69 176 342 198 397 14 36 25 64 44 112 10 25 21
54 26 65 13 29 30 84 39 130 5 22 23 92 40 155 17 63 35 142 41 175 18 113 43
390 41 460 -2 103 15 405 28 477 26 147 33 178 57 273 28 114 36 139 91 286
42 112 69 159 139 247 24 30 43 62 43 73 0 30 -43 50 -144 67 -80 14 -103 14
-148 3 -107 -25 -195 -53 -278 -87 -47 -19 -88 -34 -93 -34 -18 0 -242 -119
-302 -161 -22 -16 -78 -54 -125 -86 -47 -31 -125 -91 -175 -132 -49 -42 -98
-83 -108 -91 -11 -8 -72 -76 -137 -151 -127 -146 -226 -279 -256 -344 -23 -49
-31 -59 -120 -146 -168 -165 -455 -344 -598 -373 -117 -24 -147 -21 -198 17
-84 63 -105 170 -55 278 14 30 31 74 37 99 7 25 16 50 20 55 5 6 13 36 19 69
6 32 15 64 20 70 4 6 11 31 15 56 4 25 11 59 16 75 5 17 16 80 25 140 9 61 20
133 26 160 45 226 57 977 19 1180 -5 28 -14 82 -19 120 -20 132 -32 190 -42
200 -5 5 -9 20 -9 35 -1 14 -7 36 -15 50 -8 14 -14 37 -15 52 0 15 -5 30 -11
34 -15 9 -7 210 9 226 7 7 12 38 12 71 0 32 4 66 10 76 5 10 12 78 15 152 4
74 11 147 17 162 13 33 3 427 -12 492 -5 22 -10 79 -10 126 0 51 -6 104 -15
129 -8 23 -15 70 -15 104 0 34 -4 66 -9 72 -5 5 -12 43 -15 84 -3 41 -10 100
-15 130 -6 30 -13 73 -17 95 -3 22 -10 45 -14 50 -4 6 -11 29 -15 52 -4 24
-10 45 -15 48 -4 3 -11 21 -15 41 -3 20 -10 44 -15 53 -5 9 -19 43 -31 76 -13
33 -27 64 -31 70 -4 5 -8 16 -8 25 0 16 -17 59 -41 102 -5 10 -9 25 -9 34 0 8
-7 22 -15 30 -8 9 -15 24 -15 35 0 10 -4 19 -10 19 -5 0 -10 6 -10 14 0 14 -8
32 -84 185 -20 40 -36 79 -36 86 0 7 -7 15 -15 19 -8 3 -15 12 -15 21 0 9 -11
28 -25 43 -14 15 -25 34 -25 44 0 9 -3 18 -7 20 -7 3 -83 112 -92 131 -1 5
-14 20 -27 34 -13 14 -24 30 -24 34 0 5 -8 17 -17 27 -20 21 -33 38 -82 102
-47 62 -368 380 -384 380 -7 0 -20 8 -29 18 -29 31 -66 62 -73 62 -5 0 -23 11
-41 25 -18 14 -39 25 -48 25 -8 0 -18 5 -21 10 -17 28 -20 0 -9 -97z m-1679
-1931 c62 -6 118 -14 124 -18 6 -3 131 -13 278 -20 357 -19 505 -30 571 -44
30 -6 89 -18 130 -27 91 -18 218 -50 245 -62 59 -25 124 -57 157 -78 21 -13
44 -23 52 -23 18 0 97 -42 141 -75 17 -12 57 -37 90 -54 110 -59 251 -165 370
-276 163 -153 216 -206 246 -246 89 -116 130 -173 174 -242 28 -43 58 -91 67
-105 10 -15 21 -34 25 -42 3 -8 9 -17 13 -20 15 -13 171 -344 193 -410 25 -79
69 -346 87 -540 18 -196 29 -615 22 -840 -6 -186 -10 -219 -26 -243 -15 -21
-21 -25 -32 -16 -8 6 -14 16 -14 22 0 6 -6 18 -14 26 -7 9 -24 50 -36 91 -13
41 -29 82 -35 90 -12 14 -23 37 -59 125 -9 22 -21 48 -26 57 -6 10 -10 25 -10
33 0 8 -4 23 -9 33 -5 9 -17 35 -26 57 -32 73 -92 191 -223 435 -19 36 -43 77
-53 92 -11 14 -19 29 -19 32 0 3 -22 42 -50 86 -27 44 -50 83 -50 86 0 3 -13
23 -30 44 -16 21 -30 42 -30 47 0 6 -9 18 -20 28 -11 10 -20 22 -20 27 0 8
-156 228 -169 238 -4 3 -22 25 -41 50 -19 25 -37 47 -40 50 -3 3 -21 25 -40
50 -151 196 -447 502 -619 640 -52 41 -113 93 -137 115 -84 78 -170 144 -225
173 -20 11 -43 24 -50 31 -40 34 -171 121 -182 121 -7 0 -17 4 -22 9 -11 10
-148 85 -202 110 -18 8 -33 19 -33 23 0 4 -5 8 -12 8 -18 0 -88 33 -88 42 0 4
-11 8 -24 8 -14 0 -27 4 -31 9 -3 5 -19 12 -35 16 -17 4 -30 11 -30 16 0 5 -8
9 -19 9 -10 0 -24 7 -31 15 -7 8 -19 15 -26 15 -8 0 -22 4 -32 9 -9 5 -30 14
-47 21 -31 12 -100 46 -168 82 -47 25 -117 93 -117 114 0 13 10 15 53 11 28
-3 103 -10 164 -15z m5480 -3028 c3 -9 1 -25 -5 -35 -7 -10 -12 -25 -12 -32 0
-7 -13 -28 -30 -47 -16 -19 -29 -41 -30 -47 0 -7 -4 -13 -10 -13 -5 0 -10 -8
-10 -19 0 -10 -7 -24 -15 -31 -8 -7 -15 -19 -15 -26 0 -8 -4 -22 -10 -32 -13
-25 -34 -79 -55 -142 -10 -30 -22 -59 -26 -64 -5 -6 -9 -28 -9 -50 -1 -23 -7
-52 -15 -66 -8 -14 -14 -44 -15 -67 0 -23 -4 -45 -10 -48 -5 -3 -10 -30 -10
-58 -1 -29 -6 -72 -12 -97 -6 -25 -14 -178 -19 -340 -9 -334 -19 -474 -37
-492 -7 -7 -12 -36 -12 -64 0 -29 -4 -56 -10 -59 -5 -3 -10 -23 -10 -43 0 -21
-6 -46 -14 -57 -7 -11 -16 -36 -19 -55 -10 -61 -30 -130 -39 -130 -4 0 -8 -15
-8 -32 0 -18 -7 -42 -15 -52 -8 -11 -15 -30 -15 -43 0 -13 -4 -23 -10 -23 -5
0 -10 -13 -10 -29 0 -16 -7 -34 -15 -41 -8 -7 -15 -19 -15 -26 0 -8 -4 -22 -9
-32 -5 -9 -12 -24 -15 -32 -3 -8 -10 -22 -15 -30 -5 -8 -28 -55 -52 -105 -23
-49 -46 -91 -51 -93 -4 -2 -8 -12 -8 -22 0 -9 -7 -23 -15 -30 -8 -7 -15 -17
-15 -23 0 -5 -11 -25 -25 -43 -14 -18 -25 -35 -25 -39 0 -3 -11 -18 -25 -33
-14 -15 -25 -32 -25 -38 0 -6 -11 -23 -25 -38 -14 -15 -25 -30 -25 -34 0 -4
-13 -21 -28 -38 -63 -73 -72 -85 -72 -93 0 -13 -162 -175 -225 -226 -27 -22
-65 -56 -85 -75 -120 -117 -225 -210 -237 -210 -7 0 -13 -4 -13 -9 0 -5 -10
-13 -22 -17 -12 -3 -33 -17 -47 -30 -14 -13 -32 -24 -39 -24 -7 0 -25 -11 -40
-25 -15 -14 -32 -25 -38 -25 -6 0 -17 -6 -23 -14 -7 -8 -26 -22 -44 -31 -18
-8 -48 -25 -67 -37 -89 -54 -183 -97 -217 -100 -36 -3 -38 -2 -41 30 -2 22 2
34 12 38 9 3 16 13 16 21 0 7 11 26 25 41 14 15 25 31 25 36 0 5 11 23 23 40
13 17 32 50 42 74 10 23 22 42 27 42 4 0 8 8 8 17 0 16 13 46 76 176 13 27 24
57 24 66 0 9 7 26 15 37 8 10 15 31 15 46 0 15 5 30 10 33 6 3 10 16 10 29 0
12 7 31 15 42 8 10 15 31 15 46 0 15 5 30 10 33 6 3 10 19 10 34 0 15 7 36 15
47 8 10 15 38 15 62 0 23 4 42 9 42 5 0 11 22 15 50 4 27 11 52 16 55 6 3 10
26 10 50 0 24 4 46 10 50 5 3 12 33 16 66 4 32 11 62 15 65 5 3 9 27 9 53 0
27 7 62 15 77 8 17 15 56 15 91 0 34 5 65 10 68 6 3 10 35 10 71 0 36 6 75 12
87 7 12 16 54 20 92 20 191 26 227 36 237 7 7 12 42 12 79 0 37 4 70 9 73 4 3
11 31 14 62 3 31 11 62 16 67 6 6 11 32 11 58 0 26 4 50 9 53 5 4 12 24 16 46
4 22 11 42 16 46 5 3 9 20 9 37 0 18 7 41 15 51 8 11 15 30 15 42 0 13 5 26
10 29 6 3 10 15 10 25 0 10 7 25 15 34 8 8 15 22 15 32 0 23 32 94 42 94 4 0
8 7 8 15 0 9 10 32 23 53 12 20 31 54 41 75 11 20 22 37 26 37 5 0 10 10 14
23 3 12 17 35 31 51 14 16 25 32 25 35 0 6 17 28 98 120 76 87 224 231 238
231 3 0 15 11 28 25 13 14 28 25 33 25 5 0 22 13 39 29 16 15 43 36 59 45 17
9 44 25 60 36 17 11 37 22 45 26 8 3 23 10 32 15 10 5 24 9 32 9 7 0 19 7 26
15 7 8 25 15 41 15 16 0 29 5 29 10 0 6 15 10 33 10 17 0 41 7 51 15 11 8 34
15 52 15 18 0 36 5 39 10 3 6 35 10 71 10 51 0 66 -4 71 -16z"/>
</g>
</svg>
