<svg xmlns="http://www.w3.org/2000/svg" xmlns:xlink="http://www.w3.org/1999/xlink" id="svg" width="400" height="400" viewBox="0, 0, 400,400 undefined" version="1.1"><g id="svgg"><path id="path0" d="M185.321 11.681 C 155.944 15.793,129.880 29.399,110.263 50.863 C 81.178 82.687,75.820 113.441,90.089 166.667 C 99.148 200.460,100.469 232.445,93.841 257.500 C 83.758 295.612,73.584 324.597,62.641 346.387 C 55.457 360.691,49.193 378.536,50.289 381.577 C 50.588 382.409,55.708 380.089,61.667 376.423 C 92.817 357.255,111.605 356.648,137.350 373.977 C 162.032 390.590,173.670 389.821,198.333 369.948 C 224.978 348.479,247.522 349.474,272.240 373.209 C 292.610 392.769,307.436 392.524,328.588 372.279 C 334.686 366.442,340.311 361.643,341.088 361.614 C 351.243 361.232,348.603 352.756,330.853 328.750 C 307.758 297.518,303.962 270.557,314.014 209.167 C 322.999 154.298,324.833 136.432,323.202 119.669 C 316.531 51.135,253.899 2.082,185.321 11.681 M162.400 97.083 C 180.180 114.917,180.504 164.355,162.973 184.322 C 151.465 197.429,138.329 186.550,130.595 157.509 C 120.256 118.689,142.261 76.883,162.400 97.083 M256.191 94.946 C 276.192 107.141,278.922 164.372,260.352 182.163 C 233.971 207.437,209.913 137.206,232.922 102.089 C 239.181 92.538,247.868 89.871,256.191 94.946 " stroke="none" fill="#16a34a" fill-rule="evenodd"/></g></svg>