<?xml version="1.0" standalone="no"?>
<!DOCTYPE svg PUBLIC "-//W3C//DTD SVG 20010904//EN"
 "http://www.w3.org/TR/2001/REC-SVG-20010904/DTD/svg10.dtd">
<svg version="1.0" xmlns="http://www.w3.org/2000/svg"
 width="200.000000pt" height="200.000000pt" viewBox="0 0 200.000000 200.000000"
 preserveAspectRatio="xMidYMid meet">

<g transform="translate(0.000000,200.000000) scale(0.100000,-0.100000)"
fill="#000000" stroke="none">
<path d="M0 1000 l0 -1000 1000 0 1000 0 0 1000 0 1000 -1000 0 -1000 0 0
-1000z m404 200 c19 -7 26 -17 26 -35 0 -14 -4 -25 -10 -25 -5 0 -10 9 -10 20
0 28 -64 39 -90 15 -23 -21 -26 -48 -7 -63 6 -5 33 -12 58 -16 59 -9 83 -33
74 -76 -12 -53 -82 -83 -152 -64 -17 5 -23 14 -23 35 0 16 5 29 10 29 6 0 10
-9 10 -19 0 -21 19 -31 59 -31 41 0 63 21 59 55 -3 26 -8 29 -61 40 -61 12
-77 25 -77 62 0 36 12 55 44 69 38 16 57 17 90 4z m144 -7 c-16 -4 -18 -17
-18 -97 0 -58 4 -96 12 -104 7 -7 31 -12 54 -12 60 0 74 23 74 123 0 71 -2 78
-22 87 -18 7 -12 9 27 8 28 0 43 -2 33 -5 -13 -3 -17 -21 -20 -99 -3 -92 -4
-97 -32 -121 -25 -21 -37 -24 -78 -21 -77 8 -88 24 -88 134 0 78 -3 95 -17
103 -14 8 -5 10 37 10 30 -1 47 -3 38 -6z m302 -90 l45 -97 45 97 45 97 40 -1
c22 0 33 -3 25 -6 -25 -10 -28 -22 -29 -108 -1 -91 4 -115 26 -115 8 0 11 -4
8 -10 -3 -5 -26 -10 -51 -10 -24 0 -44 5 -44 10 0 6 7 10 15 10 12 0 15 17 14
93 l-1 92 -50 -105 -50 -105 -49 99 -49 99 0 -86 c0 -71 3 -87 15 -87 8 0 15
-4 15 -10 0 -5 -18 -10 -40 -10 -40 0 -53 13 -25 24 12 4 15 26 15 106 0 95
-1 101 -22 110 -20 7 -17 9 17 9 l40 1 45 -97z m333 7 c22 -49 44 -90 47 -90
3 0 26 41 50 90 43 88 45 90 80 90 28 -1 32 -2 18 -11 -15 -8 -18 -26 -18
-114 0 -87 3 -105 15 -105 8 0 15 -4 15 -10 0 -5 -20 -10 -45 -10 -25 0 -45 5
-45 10 0 6 5 10 10 10 6 0 10 36 10 88 l-1 87 -48 -100 -48 -100 -49 100 -49
100 -3 -80 c-2 -63 0 -82 13 -91 24 -18 18 -24 -25 -24 -22 0 -40 5 -40 10 0
6 7 10 15 10 12 0 15 19 15 109 0 96 -2 110 -17 114 -10 3 -1 5 20 6 l39 1 41
-90z m315 83 c-16 -4 -18 -18 -18 -114 0 -90 3 -109 15 -109 8 0 15 -4 15 -10
0 -5 -22 -10 -50 -10 -27 0 -50 5 -50 10 0 6 7 10 15 10 12 0 15 19 15 109 0
96 -2 110 -17 114 -10 3 7 5 37 5 30 0 47 -2 38 -5z m232 -24 c0 -17 -4 -28
-10 -24 -5 3 -10 13 -10 21 0 9 -11 14 -30 14 l-30 0 0 -105 c0 -87 3 -105 15
-105 8 0 15 -4 15 -10 0 -5 -22 -10 -50 -10 -27 0 -50 5 -50 10 0 6 7 10 15
10 12 0 15 18 15 105 l0 105 -35 0 c-30 0 -35 -3 -35 -22 0 -19 -2 -20 -10 -8
-5 8 -10 23 -10 33 0 15 12 17 105 17 l105 0 0 -31z m-542 -304 c-3 -3 -9 2
-12 12 -6 14 -5 15 5 6 7 -7 10 -15 7 -18z m-865 8 c-19 -7 -16 -60 3 -67 26
-10 36 -7 30 9 -3 9 0 15 10 15 12 0 12 -4 4 -20 -6 -11 -18 -20 -27 -20 -22
0 -53 29 -53 50 0 18 19 40 35 39 5 0 4 -3 -2 -6z m87 -40 c0 -25 -3 -43 -7
-40 -10 10 -11 87 -1 87 4 0 8 -21 8 -47z m72 30 c-13 -25 4 -65 24 -61 28 5
41 35 26 59 -11 18 -11 20 0 17 7 -3 14 -19 16 -36 4 -35 -25 -58 -58 -47 -25
8 -37 50 -20 70 17 20 23 19 12 -2z m136 0 c-1 -10 1 -23 5 -30 9 -15 -21 -45
-42 -41 -11 2 -16 15 -17 46 -1 40 0 42 28 42 22 0 29 -4 26 -17z m82 -23 c24
-47 24 -50 5 -50 -9 0 -12 6 -8 16 4 12 0 15 -18 12 -13 -2 -23 -9 -21 -16 1
-6 -2 -12 -8 -12 -5 0 -10 2 -10 5 0 9 32 85 36 85 2 0 13 -18 24 -40z m52 10
c-2 -17 1 -37 8 -45 10 -12 9 -15 -4 -15 -12 0 -16 10 -16 45 0 25 4 45 8 45
5 0 7 -14 4 -30z m108 -10 c0 -22 -4 -40 -10 -40 -5 0 -10 18 -10 40 0 22 5
40 10 40 6 0 10 -18 10 -40z m62 8 l23 -33 6 35 6 35 2 -42 c1 -51 -10 -54
-41 -12 l-23 31 -6 -34 c-6 -32 -6 -32 -8 10 -1 50 10 53 41 10z m82 7 c8 -32
22 -32 30 1 4 15 9 24 12 21 6 -6 -22 -77 -30 -77 -5 0 -36 66 -36 76 0 2 4 4
9 4 5 0 12 -11 15 -25z m126 16 c0 -5 -10 -7 -21 -4 -20 6 -21 3 -17 -36 2
-29 0 -41 -9 -41 -9 0 -13 15 -13 45 0 43 1 45 30 45 17 0 30 -4 30 -9z m24
-5 c-3 -8 4 -16 20 -20 27 -7 35 -30 14 -42 -7 -4 -8 -3 -4 4 4 7 -3 17 -18
24 -25 11 -37 48 -16 48 5 0 7 -6 4 -14z m110 4 c-16 -6 -20 -15 -16 -39 2
-19 0 -31 -7 -31 -6 0 -11 16 -11 36 0 28 -3 35 -15 30 -8 -3 -15 -1 -15 4 0
6 19 10 43 9 33 0 37 -2 21 -9z m57 -22 l15 -31 13 31 c18 44 31 40 31 -8 0
-22 -4 -40 -9 -40 -4 0 -6 12 -4 28 4 26 4 26 -11 8 -9 -11 -16 -23 -16 -28 0
-16 -17 -7 -28 15 l-11 22 0 -22 c-1 -12 -4 -24 -8 -26 -5 -3 -6 15 -4 39 4
52 12 55 32 12z m101 -8 c-2 -22 -5 -40 -7 -40 -2 0 -5 18 -7 40 -2 24 1 40 7
40 6 0 9 -16 7 -40z m99 8 l24 -33 6 35 6 35 2 -42 c1 -51 -10 -54 -41 -12
l-23 31 -6 -34 c-6 -32 -6 -32 -8 10 0 23 3 42 7 42 5 0 19 -15 33 -32z m112
25 c-7 -2 -13 -20 -13 -38 0 -19 -4 -37 -10 -40 -6 -4 -10 10 -10 35 0 33 -3
41 -15 36 -8 -3 -15 -1 -15 4 0 6 17 10 38 9 20 0 31 -3 25 -6z m31 -7 c-3 -8
4 -16 20 -20 29 -7 34 -27 11 -46 -17 -14 -45 -7 -44 12 0 10 2 10 6 1 7 -18
33 -16 33 1 0 8 -9 18 -20 21 -20 6 -26 25 -13 38 10 11 13 8 7 -7z m-544 -26
c0 -5 -2 -10 -4 -10 -3 0 -8 5 -11 10 -3 6 -1 10 4 10 6 0 11 -4 11 -10z m45
-49 c-6 -5 -25 10 -25 20 0 5 6 4 14 -3 8 -7 12 -15 11 -17z m-35 9 c0 -5 -5
-10 -11 -10 -5 0 -7 5 -4 10 3 6 8 10 11 10 2 0 4 -4 4 -10z"/>
<path d="M580 860 c0 -5 5 -10 10 -10 6 0 10 5 10 10 0 6 -4 10 -10 10 -5 0
-10 -4 -10 -10z"/>
<path d="M580 820 c0 -13 5 -20 13 -17 6 2 12 10 12 17 0 7 -6 15 -12 18 -8 2
-13 -5 -13 -18z"/>
<path d="M666 845 c-3 -9 0 -15 9 -15 9 0 12 6 9 15 -4 8 -7 15 -9 15 -2 0 -5
-7 -9 -15z"/>
</g>
</svg>
